<?xml version="1.0" encoding="UTF-8"?>
<svg xmlns="http://www.w3.org/2000/svg" width="512" height="512" viewBox="0 0 512 512" role="img" aria-label="DAGMAR">
  <defs>
    <linearGradient id="g" x1="0" y1="0" x2="1" y2="1">
      <stop offset="0" stop-color="#0b5bd3"/>
      <stop offset="0.55" stop-color="#2aa8ff"/>
      <stop offset="1" stop-color="#6fd3ff"/>
    </linearGradient>
    <filter id="s" x="-20%" y="-20%" width="140%" height="140%">
      <feDropShadow dx="0" dy="14" stdDeviation="18" flood-color="#001023" flood-opacity="0.45"/>
    </filter>
  </defs>
  <rect width="512" height="512" rx="112" fill="#071022"/>
  <g filter="url(#s)">
    <path d="M104 190c10-64 68-108 146-108 52 0 92 15 124 44 31 28 45 65 34 110-13 54-57 86-118 96-62 10-110 3-147-21-35-22-47-60-39-121z"
          fill="url(#g)"/>
    <path d="M120 300c20 62 78 104 157 104 58 0 103-18 135-54 26-30 34-69 18-115-7-21-19-38-35-52 6 16 7 33 2 52-13 54-57 86-118 96-62 10-110 3-147-21-6-4-10-8-14-10 1 0 1 0 2 0z"
          fill="rgba(255,255,255,0.10)"/>
    <g transform="translate(98 214)">
      <text x="0" y="0" fill="#ffffff" font-size="76" font-weight="900"
            font-family="ui-sans-serif, system-ui, -apple-system, Segoe UI, Roboto, Arial"
            dominant-baseline="hanging" letter-spacing="1.2">DAGMAR</text>
      <text x="2" y="80" fill="rgba(255,255,255,0.88)" font-size="22" font-weight="700"
            font-family="ui-sans-serif, system-ui, -apple-system, Segoe UI, Roboto, Arial"
            dominant-baseline="hanging" letter-spacing="0.6">docházkový systém</text>
    </g>
  </g>
</svg>
